# Blender v2.77 (sub 0) OBJ File: 'Objects.blend'
# www.blender.org
mtllib Wheel.mtl
o Cylinder
v -0.201418 -0.000000 -0.316240
v 0.199327 0.000000 -0.316240
v -0.201418 -0.121020 -0.292168
v 0.199327 -0.121020 -0.292168
v -0.201418 -0.223615 -0.223615
v 0.199327 -0.223615 -0.223615
v -0.201418 -0.292168 -0.121020
v 0.199327 -0.292168 -0.121020
v -0.201418 -0.316240 0.000000
v 0.199327 -0.316240 0.000000
v -0.201418 -0.292168 0.121020
v 0.199327 -0.292168 0.121020
v -0.201418 -0.223615 0.223615
v 0.199327 -0.223615 0.223615
v -0.201418 -0.121020 0.292168
v 0.199327 -0.121020 0.292168
v -0.201418 -0.000000 0.316240
v 0.199327 -0.000000 0.316240
v -0.201418 0.121020 0.292168
v 0.199327 0.121020 0.292168
v -0.201418 0.223615 0.223615
v 0.199327 0.223615 0.223615
v -0.201418 0.292168 0.121020
v 0.199327 0.292168 0.121020
v -0.201418 0.316240 -0.000000
v 0.199327 0.316240 -0.000000
v -0.201418 0.292168 -0.121020
v 0.199327 0.292168 -0.121020
v -0.201418 0.223615 -0.223615
v 0.199327 0.223615 -0.223615
v -0.201418 0.121020 -0.292168
v 0.199327 0.121020 -0.292168
v 0.226405 -0.103695 -0.250342
v 0.226405 0.000000 -0.270968
v 0.226405 -0.191603 -0.191603
v 0.226405 -0.250342 -0.103695
v 0.226405 -0.270968 0.000000
v 0.226405 -0.250342 0.103695
v 0.226405 -0.191603 0.191603
v 0.226405 -0.103695 0.250342
v 0.226405 -0.000000 0.270968
v 0.226405 0.103695 0.250342
v 0.226405 0.191603 0.191603
v 0.226405 0.250342 0.103695
v 0.226405 0.270968 -0.000000
v 0.226405 0.250342 -0.103695
v 0.226405 0.191603 -0.191603
v 0.226405 0.103695 -0.250342
vt 0.2745 0.4847
vt 0.0000 0.4847
vt 0.0000 0.4250
vt 0.2745 0.4250
vt 0.5153 0.7255
vt 0.5153 1.0000
vt 0.4372 1.0000
vt 0.4372 0.7255
vt 0.3526 1.0000
vt 0.3526 0.7255
vt 0.2745 1.0000
vt 0.2745 0.7255
vt 0.5491 0.7255
vt 0.2745 0.7255
vt 0.2745 0.6474
vt 0.5491 0.6474
vt 0.2745 0.5628
vt 0.5491 0.5628
vt 0.2745 0.4847
vt 0.5491 0.4847
vt 0.2745 0.4250
vt 0.5491 0.4250
vt 0.8236 0.4250
vt 0.8236 0.4847
vt 0.5491 0.4847
vt 0.8236 0.5628
vt 0.5491 0.5628
vt 0.8236 0.6474
vt 0.5491 0.6474
vt 0.8236 0.7255
vt 0.5491 0.7255
vt 0.2745 0.7852
vt 0.0000 0.7852
vt 0.0000 0.7255
vt 0.2745 0.7255
vt 0.0000 0.6474
vt 0.2745 0.6474
vt 0.8176 0.0921
vt 0.8499 0.1702
vt 0.8195 0.1763
vt 0.7918 0.1094
vt 0.0000 0.5628
vt 0.2745 0.5628
vt 0.3926 0.0921
vt 0.4250 0.1702
vt 0.4250 0.2547
vt 0.3926 0.3328
vt 0.3328 0.3926
vt 0.2547 0.4250
vt 0.1702 0.4250
vt 0.0921 0.3926
vt 0.0323 0.3328
vt 0.0000 0.2547
vt 0.0000 0.1702
vt 0.0323 0.0921
vt 0.0921 0.0323
vt 0.1702 0.0000
vt 0.2547 0.0000
vt 0.3328 0.0323
vt 0.6012 0.0304
vt 0.6737 0.0304
vt 0.7406 0.0581
vt 0.8195 0.2487
vt 0.7918 0.3156
vt 0.7406 0.3668
vt 0.6737 0.3945
vt 0.6012 0.3945
vt 0.5343 0.3668
vt 0.4831 0.3156
vt 0.4554 0.2487
vt 0.4554 0.1763
vt 0.4831 0.1094
vt 0.5343 0.0581
vt 0.5171 0.0323
vt 0.5952 0.0000
vt 0.5171 0.3926
vt 0.4573 0.3328
vt 0.8499 0.2547
vt 0.8176 0.3328
vt 0.4250 0.2547
vt 0.4250 0.1702
vt 0.7578 0.3926
vt 0.6797 0.4250
vt 0.7578 0.0323
vt 0.4573 0.0921
vt 0.5952 0.4250
vt 0.6797 0.0000
vn -0.6657 0.0000 -0.7462
vn 0.4687 0.0000 -0.8833
vn 0.4687 -0.3380 -0.8161
vn -0.6657 -0.2855 -0.6894
vn 0.4687 -0.6246 -0.6246
vn -0.6657 -0.5276 -0.5276
vn 0.4687 -0.8161 -0.3380
vn -0.6657 -0.6894 -0.2855
vn 0.4687 -0.8833 0.0000
vn -0.6657 -0.7462 0.0000
vn 0.4687 -0.8161 0.3380
vn -0.6657 -0.6894 0.2855
vn 0.4687 -0.6246 0.6246
vn -0.6657 -0.5276 0.5276
vn 0.4687 -0.3380 0.8161
vn -0.6657 -0.2855 0.6894
vn 0.4687 0.0000 0.8833
vn -0.6657 0.0000 0.7462
vn 0.4687 0.3380 0.8161
vn -0.6657 0.2855 0.6894
vn 0.4687 0.6246 0.6246
vn -0.6657 0.5276 0.5276
vn 0.4687 0.8161 0.3380
vn -0.6657 0.6894 0.2855
vn 0.4687 0.8833 0.0000
vn -0.6657 0.7462 0.0000
vn 0.4687 0.8161 -0.3380
vn -0.6657 0.6894 -0.2855
vn 0.4687 0.6246 -0.6246
vn -0.6657 0.5276 -0.5276
vn 0.9550 0.2740 -0.1135
vn 0.9550 0.2097 -0.2097
vn 0.4687 0.3380 -0.8161
vn -0.6657 0.2855 -0.6894
vn 0.9550 -0.1135 -0.2740
vn 0.9550 0.0000 -0.2966
vn 0.9550 0.1135 -0.2740
vn 0.9550 0.2966 0.0000
vn 0.9550 0.2740 0.1135
vn 0.9550 0.2097 0.2097
vn 0.9550 0.1135 0.2740
vn 0.9550 0.0000 0.2966
vn 0.9550 -0.1135 0.2740
vn 0.9550 -0.2097 0.2097
vn 0.9550 -0.2740 0.1135
vn 0.9550 -0.2966 0.0000
vn 0.9550 -0.2740 -0.1135
vn 0.9550 -0.2097 -0.2097
usemtl Wheel_Body
s 1
f 1/1/1 2/2/2 4/3/3 3/4/4
f 3/5/4 4/6/3 6/7/5 5/8/6
f 5/8/6 6/7/5 8/9/7 7/10/8
f 7/10/8 8/9/7 10/11/9 9/12/10
f 9/13/10 10/14/9 12/15/11 11/16/12
f 11/16/12 12/15/11 14/17/13 13/18/14
f 13/18/14 14/17/13 16/19/15 15/20/16
f 15/20/16 16/19/15 18/21/17 17/22/18
f 17/22/18 18/23/17 20/24/19 19/25/20
f 19/25/20 20/24/19 22/26/21 21/27/22
f 21/27/22 22/26/21 24/28/23 23/29/24
f 23/29/24 24/28/23 26/30/25 25/31/26
f 25/32/26 26/33/25 28/34/27 27/35/28
f 27/35/28 28/34/27 30/36/29 29/37/30
f 30/38/29 28/39/27 46/40/31 47/41/32
f 29/37/30 30/36/29 32/42/33 31/43/34
f 31/43/34 32/42/33 2/2/2 1/1/1
f 1/44/1 3/45/4 5/46/6 7/47/8 9/48/10 11/49/12 13/50/14 15/51/16 17/52/18 19/53/20 21/54/22 23/55/24 25/56/26 27/57/28 29/58/30 31/59/34
f 33/60/35 34/61/36 48/62/37 47/41/32 46/40/31 45/63/38 44/64/39 43/65/40 42/66/41 41/67/42 40/68/43 39/69/44 38/70/45 37/71/46 36/72/47 35/73/48
f 6/74/5 4/75/3 33/60/35 35/73/48
f 16/76/15 14/77/13 39/69/44 40/68/43
f 26/78/25 24/79/23 44/64/39 45/63/38
f 12/80/11 10/81/9 37/71/46 38/70/45
f 22/82/21 20/83/19 42/66/41 43/65/40
f 32/84/33 30/38/29 47/41/32 48/62/37
f 8/85/7 6/74/5 35/73/48 36/72/47
f 18/86/17 16/76/15 40/68/43 41/67/42
f 4/75/3 2/87/2 34/61/36 33/60/35
f 28/39/27 26/78/25 45/63/38 46/40/31
f 14/77/13 12/80/11 38/70/45 39/69/44
f 24/79/23 22/82/21 43/65/40 44/64/39
f 2/87/2 32/84/33 48/62/37 34/61/36
f 10/81/9 8/85/7 36/72/47 37/71/46
f 20/83/19 18/86/17 41/67/42 42/66/41
