# Blender v2.77 (sub 0) OBJ File: 'Objects.blend'
# www.blender.org
mtllib Body.mtl
o Cube
v 0.898921 0.015486 -1.714669
v 0.898921 0.015486 2.196456
v 0.726681 2.025702 -1.699619
v 0.726680 2.025702 1.336047
v 1.000000 0.975030 2.196456
v 1.000000 1.149750 1.809370
v 1.000000 1.152601 -1.803544
v 1.000000 0.337479 2.196456
v 1.000000 0.337479 -1.758349
v 0.898921 0.015486 1.228789
v 0.898921 0.015486 1.954617
v 1.000000 0.337479 1.813814
v 1.000000 0.337479 1.367245
v 1.000001 0.394053 1.731003
v 1.000001 0.420935 1.590481
v 1.000001 0.392831 1.452402
v 0.909972 0.050690 1.960726
v 0.953701 0.189990 1.932622
v 0.991292 0.309739 1.854418
v 0.992443 0.313405 1.330209
v 0.954084 0.191212 1.248340
v 0.909972 0.050690 1.220235
v 0.898921 0.015486 -1.381634
v 0.898921 0.015486 -0.655807
v 1.000000 0.337479 -0.795868
v 1.000000 0.337479 -1.243290
v 0.999999 0.394354 -0.878688
v 0.999999 0.423681 -1.020920
v 0.999999 0.392888 -1.161687
v 0.910604 0.052702 -0.648475
v 0.953413 0.189070 -0.677802
v 0.991618 0.310774 -0.756983
v 0.992077 0.312241 -1.280459
v 0.954794 0.193469 -1.362572
v 0.909684 0.049769 -1.391899
v 0.492807 0.015486 1.228789
v 0.492807 0.015486 1.954617
v 0.593886 0.337479 1.813814
v 0.593887 0.394053 1.731003
v 0.593887 0.420935 1.590481
v 0.593887 0.392831 1.452402
v 0.593886 0.337479 1.367245
v 0.503859 0.050690 1.960726
v 0.547587 0.189990 1.932622
v 0.585178 0.309739 1.854418
v 0.586329 0.313405 1.330209
v 0.547971 0.191212 1.248340
v 0.503859 0.050690 1.220235
v 0.492807 0.015486 -1.381634
v 0.492807 0.015486 -0.655807
v 0.593886 0.337479 -0.795868
v 0.593885 0.394354 -0.878688
v 0.593885 0.423681 -1.020920
v 0.593885 0.392888 -1.161687
v 0.593886 0.337479 -1.243290
v 0.504491 0.052702 -0.648475
v 0.547299 0.189070 -0.677802
v 0.585504 0.310774 -0.756983
v 0.585963 0.312241 -1.280459
v 0.548680 0.193469 -1.362572
v 0.503571 0.049769 -1.391899
v 0.779126 2.025702 -0.620471
v 1.052445 0.337479 -0.620471
v 0.951366 0.015486 -0.620471
v 1.052445 1.151667 -0.620471
v 0.779125 2.025702 0.630002
v 1.052445 1.150680 0.630003
v 1.052445 0.337479 0.630002
v 0.951366 0.015486 0.630002
v -0.898921 0.015486 -1.714669
v -0.898921 0.015486 2.196456
v 0.000000 0.015486 2.271972
v 0.000000 0.015486 -1.803544
v -0.726681 2.025702 -1.699619
v -0.726680 2.025702 1.336047
v 0.000000 2.025702 1.407250
v 0.000000 2.025702 -1.754505
v 0.000000 0.975030 2.271972
v -1.000000 0.975030 2.196456
v 0.000000 1.149750 1.809369
v -1.000000 1.149750 1.809370
v -1.000000 1.152601 -1.803544
v -1.000000 0.337479 2.196456
v -1.000000 0.337479 -1.758349
v -0.898921 0.015486 1.228789
v -0.898921 0.015486 1.954617
v -1.000000 0.337479 1.813814
v -1.000000 0.337479 1.367245
v -1.000001 0.394053 1.731003
v -1.000001 0.420935 1.590481
v -1.000001 0.392831 1.452402
v -0.909972 0.050690 1.960726
v -0.953701 0.189990 1.932622
v -0.991292 0.309739 1.854418
v -0.992443 0.313405 1.330209
v -0.954084 0.191212 1.248340
v -0.909972 0.050690 1.220235
v -0.898921 0.015486 -1.381634
v -0.898921 0.015486 -0.655807
v -1.000000 0.337479 -0.795868
v -1.000000 0.337479 -1.243290
v -0.999999 0.394354 -0.878688
v -0.999999 0.423681 -1.020920
v -0.999999 0.392888 -1.161687
v -0.910604 0.052702 -0.648475
v -0.953413 0.189070 -0.677802
v -0.991618 0.310774 -0.756983
v -0.992077 0.312241 -1.280459
v -0.954794 0.193469 -1.362572
v -0.909684 0.049769 -1.391899
v -0.492807 0.015486 1.228789
v -0.492807 0.015486 1.954617
v -0.593886 0.337479 1.813814
v -0.593887 0.394053 1.731003
v -0.593887 0.420935 1.590481
v -0.593887 0.392831 1.452402
v -0.593886 0.337479 1.367245
v -0.503859 0.050690 1.960726
v -0.547587 0.189990 1.932622
v -0.585178 0.309739 1.854418
v -0.586329 0.313405 1.330209
v -0.547971 0.191212 1.248340
v -0.503859 0.050690 1.220235
v -0.492807 0.015486 -1.381634
v -0.492807 0.015486 -0.655807
v -0.593886 0.337479 -0.795868
v -0.593885 0.394354 -0.878688
v -0.593885 0.423681 -1.020920
v -0.593885 0.392888 -1.161687
v -0.593886 0.337479 -1.243290
v -0.504491 0.052702 -0.648475
v -0.547299 0.189070 -0.677802
v -0.585504 0.310774 -0.756983
v -0.585963 0.312241 -1.280459
v -0.548680 0.193469 -1.362572
v -0.503571 0.049769 -1.391899
v -0.779126 2.025702 -0.620471
v -1.052445 0.337479 -0.620471
v -0.951366 0.015486 -0.620471
v -1.052445 1.151667 -0.620471
v -0.779125 2.025702 0.630002
v -1.052445 1.150680 0.630003
v -1.052445 0.337479 0.630002
v -0.951366 0.015486 0.630002
v 0.000000 1.152601 -1.899725
v 0.000000 0.338546 -1.867370
v 1.010239 1.038239 1.657046
v 1.010239 1.113726 1.655389
v 1.010239 1.038239 1.615319
v 1.010239 1.139132 1.615319
v 1.220799 1.014600 1.555498
v 1.220799 1.203190 1.555498
v 1.220799 1.014600 1.481590
v 1.220799 1.203190 1.481590
v -1.011332 1.038239 1.657046
v -1.011332 1.113726 1.655389
v -1.011332 1.038239 1.615319
v -1.011332 1.139132 1.615319
v -1.221892 1.014600 1.555498
v -1.221892 1.203190 1.555498
v -1.221892 1.014600 1.481590
v -1.221892 1.203190 1.481590
vt 0.8732 0.4468
vt 0.8778 0.4506
vt 0.8596 0.4506
vt 0.8596 0.4466
vt 0.7735 0.6442
vt 0.8058 0.7699
vt 0.7108 0.7699
vt 0.7227 0.6442
vt 0.8619 0.5009
vt 0.8620 0.4951
vt 0.8960 0.4951
vt 0.8959 0.5009
vt 0.8781 0.4531
vt 0.8917 0.4530
vt 0.9120 0.4530
vt 0.9184 0.4570
vt 0.9184 0.5022
vt 0.9071 0.4951
vt 0.8960 0.4598
vt 0.9071 0.4530
vt 0.9071 0.4993
vt 0.9008 0.5044
vt 0.8732 0.4468
vt 0.8778 0.4506
vt 0.8596 0.4506
vt 0.8596 0.4466
vt 0.7735 0.6442
vt 0.8058 0.7699
vt 0.7108 0.7699
vt 0.7227 0.6442
vt 0.8619 0.5009
vt 0.8620 0.4951
vt 0.8960 0.4951
vt 0.8959 0.5009
vt 0.8781 0.4531
vt 0.8917 0.4530
vt 0.9120 0.4530
vt 0.9184 0.4570
vt 0.9184 0.5022
vt 0.9071 0.4951
vt 0.8960 0.4598
vt 0.9071 0.4530
vt 0.9071 0.4993
vt 0.9008 0.5044
vt 0.8225 0.4270
vt 0.7653 0.4270
vt 0.7653 0.5292
vt 0.8225 0.5292
vt 0.8225 0.5632
vt 0.6959 0.5739
vt 0.6959 0.0000
vt 0.8225 0.0125
vt 0.8225 0.0594
vt 0.7653 0.0594
vt 0.7653 0.1616
vt 0.8225 0.1616
vt 0.8298 0.1666
vt 0.8298 0.3427
vt 0.2120 0.9924
vt 0.1097 1.0000
vt 0.1097 0.5632
vt 0.2120 0.5731
vt 0.2194 0.6706
vt 0.2194 0.8433
vt 0.2810 0.0125
vt 0.3272 0.0063
vt 0.3272 0.0788
vt 0.3236 0.0736
vt 0.3065 0.0621
vt 0.2859 0.0580
vt 0.2810 0.0594
vt 0.5630 0.5881
vt 0.6081 0.5739
vt 0.6974 0.5739
vt 0.6964 0.7147
vt 0.5619 0.7147
vt 0.4625 0.5634
vt 0.5010 0.6860
vt 0.3602 0.6858
vt 0.3602 0.5632
vt 0.8267 0.7147
vt 0.8372 0.5739
vt 0.8954 0.5739
vt 0.8954 0.7147
vt 0.6974 0.7147
vt 0.6974 0.5739
vt 0.8267 0.6124
vt 0.8258 0.7147
vt 0.4413 0.5087
vt 0.4420 0.3426
vt 0.5619 0.3429
vt 0.5614 0.4424
vt 0.3272 0.5632
vt 0.3272 0.5093
vt 0.3352 0.4976
vt 0.3390 0.4778
vt 0.3350 0.4584
vt 0.3272 0.4464
vt 0.3278 0.3426
vt 0.4168 0.5632
vt 0.8887 0.4046
vt 0.9084 0.4108
vt 0.9084 0.4679
vt 0.8887 0.4618
vt 0.5594 0.7711
vt 0.5545 0.7726
vt 0.5338 0.7685
vt 0.5168 0.7570
vt 0.5131 0.7517
vt 0.5054 0.7402
vt 0.5010 0.7204
vt 0.5052 0.7004
vt 0.5131 0.6887
vt 0.5170 0.6833
vt 0.5345 0.6721
vt 0.5541 0.6679
vt 0.5594 0.6689
vt 0.2810 0.5292
vt 0.2860 0.5300
vt 0.3060 0.5261
vt 0.3233 0.5150
vt 0.2810 0.5632
vt 0.5590 0.8756
vt 0.5540 0.8769
vt 0.5338 0.8729
vt 0.5162 0.8614
vt 0.5128 0.8562
vt 0.5050 0.8442
vt 0.5010 0.8248
vt 0.5048 0.8050
vt 0.5128 0.7933
vt 0.5167 0.7876
vt 0.5340 0.7766
vt 0.5540 0.7726
vt 0.5590 0.7734
vt 0.2810 0.1616
vt 0.2863 0.1626
vt 0.3059 0.1585
vt 0.3234 0.1473
vt 0.3272 0.1418
vt 0.3278 0.1665
vt 0.2815 0.1665
vt 0.8472 0.4047
vt 0.8664 0.4107
vt 0.8664 0.4679
vt 0.8472 0.4619
vt 0.8717 0.3993
vt 0.8717 0.4565
vt 0.8298 0.3993
vt 0.8298 0.4565
vt 0.8298 0.1838
vt 0.8311 0.1781
vt 0.8883 0.1781
vt 0.8870 0.1838
vt 0.8882 0.3938
vt 0.8870 0.3993
vt 0.8298 0.3993
vt 0.8310 0.3938
vt 0.8298 0.1954
vt 0.8870 0.1954
vt 0.8882 0.3822
vt 0.8310 0.3822
vt 0.8309 0.2519
vt 0.8298 0.2467
vt 0.8870 0.2467
vt 0.8881 0.2519
vt 0.8871 0.3256
vt 0.8882 0.3308
vt 0.8310 0.3308
vt 0.8299 0.3256
vt 0.8298 0.2152
vt 0.8870 0.2152
vt 0.8882 0.3622
vt 0.8310 0.3622
vt 0.2354 0.9113
vt 0.2194 0.9167
vt 0.2194 0.8595
vt 0.2354 0.8541
vt 0.3558 0.9114
vt 0.3403 0.9167
vt 0.3403 0.8595
vt 0.3558 0.8542
vt 0.8298 0.2346
vt 0.8870 0.2346
vt 0.8882 0.3424
vt 0.8310 0.3424
vt 0.2547 0.9051
vt 0.2547 0.8479
vt 0.3755 0.9051
vt 0.3755 0.8479
vt 0.2597 0.9035
vt 0.2597 0.8464
vt 0.3804 0.9035
vt 0.3804 0.8464
vt 0.9133 0.4123
vt 0.9133 0.4695
vt 0.8717 0.4124
vt 0.8717 0.4695
vt 0.5619 0.1668
vt 0.4421 0.1665
vt 0.4417 0.0000
vt 0.5614 0.0149
vt 0.2815 0.3426
vt 0.3238 0.4412
vt 0.3062 0.4297
vt 0.2860 0.4258
vt 0.2810 0.4270
vt 0.5693 0.4270
vt 0.5619 0.3427
vt 0.5619 0.1666
vt 0.5693 0.1616
vt 0.6265 0.1616
vt 0.6265 0.0594
vt 0.5693 0.0594
vt 0.5693 0.0125
vt 0.5693 0.5632
vt 0.5693 0.5292
vt 0.6265 0.5292
vt 0.6265 0.4270
vt 0.0074 0.9924
vt 0.0000 0.8433
vt 0.0000 0.6706
vt 0.0074 0.5731
vt 0.2810 0.0125
vt 0.2810 0.0594
vt 0.2760 0.0580
vt 0.2554 0.0621
vt 0.2383 0.0736
vt 0.2347 0.0788
vt 0.2347 0.0063
vt 0.5630 0.8413
vt 0.6974 0.8555
vt 0.6081 0.8555
vt 0.2579 0.5634
vt 0.2194 0.6860
vt 0.8954 0.8555
vt 0.8372 0.8555
vt 0.8267 0.8170
vt 0.6974 0.8555
vt 0.1206 0.5087
vt 0.0006 0.4424
vt 0.0000 0.3429
vt 0.1199 0.3426
vt 0.2347 0.5632
vt 0.1452 0.5632
vt 0.2341 0.3426
vt 0.2347 0.4464
vt 0.2269 0.4584
vt 0.2230 0.4778
vt 0.2267 0.4976
vt 0.2347 0.5093
vt 0.8963 0.4748
vt 0.8963 0.5320
vt 0.8766 0.5381
vt 0.8766 0.4809
vt 0.5594 0.5647
vt 0.5594 0.6669
vt 0.5541 0.6679
vt 0.5345 0.6638
vt 0.5170 0.6526
vt 0.5131 0.6471
vt 0.5052 0.6354
vt 0.5010 0.6154
vt 0.5054 0.5956
vt 0.5131 0.5841
vt 0.5168 0.5789
vt 0.5338 0.5673
vt 0.5545 0.5632
vt 0.2810 0.5292
vt 0.2810 0.5632
vt 0.2387 0.5150
vt 0.2559 0.5261
vt 0.2759 0.5300
vt 0.8878 0.0012
vt 0.8878 0.1034
vt 0.8828 0.1043
vt 0.8628 0.1003
vt 0.8455 0.0892
vt 0.8416 0.0835
vt 0.8336 0.0719
vt 0.8298 0.0521
vt 0.8338 0.0326
vt 0.8416 0.0206
vt 0.8450 0.0154
vt 0.8626 0.0039
vt 0.8828 0.0000
vt 0.2810 0.1616
vt 0.2804 0.1665
vt 0.2341 0.1665
vt 0.2347 0.1418
vt 0.2385 0.1473
vt 0.2560 0.1585
vt 0.2756 0.1626
vt 0.8472 0.5344
vt 0.8472 0.4772
vt 0.8664 0.4712
vt 0.8664 0.5284
vt 0.9133 0.4695
vt 0.9133 0.5267
vt 0.8298 0.5398
vt 0.8298 0.4826
vt 0.8883 0.1100
vt 0.8311 0.1100
vt 0.8298 0.1043
vt 0.8870 0.1043
vt 0.8882 0.2573
vt 0.8310 0.2573
vt 0.8298 0.2519
vt 0.8870 0.2519
vt 0.8883 0.1216
vt 0.8311 0.1216
vt 0.8882 0.2690
vt 0.8310 0.2690
vt 0.8872 0.1781
vt 0.8300 0.1781
vt 0.8311 0.1728
vt 0.8883 0.1728
vt 0.8871 0.3256
vt 0.8299 0.3256
vt 0.8310 0.3203
vt 0.8882 0.3203
vt 0.8883 0.1414
vt 0.8311 0.1414
vt 0.8882 0.2890
vt 0.8310 0.2890
vt 0.2757 0.8518
vt 0.2757 0.9089
vt 0.2597 0.9035
vt 0.2597 0.8464
vt 0.3156 0.8516
vt 0.3156 0.9088
vt 0.3001 0.9035
vt 0.3001 0.8464
vt 0.8883 0.1608
vt 0.8311 0.1608
vt 0.8882 0.3088
vt 0.8310 0.3088
vt 0.2950 0.8580
vt 0.2950 0.9151
vt 0.3353 0.8580
vt 0.3353 0.9151
vt 0.3001 0.8595
vt 0.3001 0.9167
vt 0.3403 0.8595
vt 0.3403 0.9167
vt 0.8717 0.5397
vt 0.8717 0.4825
vt 0.8717 0.4695
vt 0.8717 0.5267
vt 0.0000 0.1668
vt 0.0006 0.0149
vt 0.1202 0.0000
vt 0.1198 0.1665
vt 0.2804 0.3426
vt 0.2810 0.4270
vt 0.2759 0.4258
vt 0.2557 0.4297
vt 0.2381 0.4412
vt 0.3602 0.8005
vt 0.2194 0.8009
vt 0.5010 0.8009
vt 0.4868 0.8464
vt 0.3602 0.8461
vt 0.2336 0.8464
vt 0.3352 0.1302
vt 0.3394 0.1101
vt 0.3350 0.0903
vt 0.2226 0.1101
vt 0.2267 0.1302
vt 0.2269 0.0903
vn -1.0000 0.0000 0.0000
vn -0.5361 0.0000 -0.8441
vn 1.0000 0.0000 0.0000
vn 0.4308 0.0057 0.9024
vn -0.1116 -0.9938 0.0000
vn -0.2289 0.9501 0.2118
vn -0.5361 0.0000 0.8441
vn 0.4308 -0.0057 -0.9024
vn -0.1116 0.9938 0.0000
vn -0.2289 -0.9501 -0.2118
vn 0.4438 -0.5806 0.6826
vn 0.6271 -0.6367 0.4487
vn 0.6024 -0.6580 -0.4517
vn 0.4747 -0.5914 -0.6518
vn 0.5012 -0.6509 0.5702
vn 0.0000 -0.6901 0.7237
vn 0.0000 -0.7486 -0.6629
vn 0.5044 -0.6994 -0.5063
vn 0.4753 -0.5486 0.6878
vn 0.6468 -0.6193 0.4451
vn 0.6111 -0.6505 -0.4510
vn 0.2446 -0.7006 -0.6703
vn 0.6411 -0.7336 -0.2253
vn 0.5986 -0.8007 0.0249
vn 0.4880 0.6923 -0.5315
vn 0.0000 0.7447 -0.6673
vn 0.0000 0.8373 0.5467
vn 0.4823 0.7721 0.4138
vn 0.5984 0.8010 0.0168
vn 0.5975 0.8017 -0.0138
vn 0.7495 -0.1676 -0.6403
vn 0.7086 -0.5966 0.3767
vn 0.5856 -0.6694 0.4571
vn 0.6036 -0.4865 0.6317
vn 0.6276 -0.1987 0.7527
vn 0.7467 -0.1129 0.6554
vn 0.6196 0.4322 0.6551
vn 0.0000 0.5428 0.8398
vn 0.7311 0.1214 -0.6713
vn 0.0000 0.0534 -0.9986
vn 0.7840 0.4821 0.3910
vn 0.0000 0.7343 0.6788
vn 0.9882 0.1514 0.0222
vn 0.7114 -0.6038 -0.3596
vn 0.6651 -0.6983 -0.2645
vn 0.6623 -0.7486 0.0276
vn 0.6597 -0.6880 0.3022
vn 0.6978 -0.6010 0.3897
vn 0.9872 -0.1571 0.0285
vn 0.6064 -0.4769 -0.6362
vn 0.6346 -0.2356 -0.7360
vn 0.6465 -0.1657 -0.7447
vn 0.6108 -0.4209 -0.6706
vn 0.6429 -0.1107 0.7579
vn 0.6075 -0.4284 0.6688
vn 0.5824 -0.6420 0.4985
vn 0.5806 -0.7208 0.3786
vn 0.5749 -0.7746 0.2635
vn 0.5669 -0.8238 0.0040
vn 0.5734 -0.7763 -0.2619
vn 0.5805 -0.7191 -0.3818
vn 0.5811 -0.6345 -0.5096
vn 0.6118 -0.4247 -0.6673
vn 0.6442 -0.1582 -0.7483
vn 0.5846 -0.6650 -0.4647
vn 0.6447 -0.1346 0.7525
vn 0.6091 -0.4234 0.6706
vn 0.5784 -0.6440 0.5006
vn 0.5807 -0.7271 0.3663
vn 0.5747 -0.7784 0.2524
vn 0.5690 -0.8224 0.0039
vn 0.5719 -0.7790 -0.2570
vn 0.5803 -0.7201 -0.3803
vn 0.5807 -0.6357 -0.5085
vn 0.4009 -0.2184 -0.8897
vn 0.3953 -0.4256 -0.8140
vn 0.3970 -0.6018 -0.6930
vn 0.6297 -0.5770 -0.5201
vn 0.9619 -0.1690 -0.2149
vn 0.6431 -0.7051 -0.2986
vn 0.5638 -0.6640 0.4911
vn 0.7382 -0.6743 -0.0207
vn 0.5805 -0.4738 0.6623
vn 0.7468 -0.6195 0.2416
vn 0.6029 -0.2153 0.7682
vn 0.9895 0.1415 -0.0291
vn -0.4438 -0.5806 0.6826
vn -0.5986 -0.8007 0.0249
vn -0.6411 -0.7336 -0.2253
vn -0.2446 -0.7006 -0.6703
vn -0.6111 -0.6505 -0.4510
vn -0.6468 -0.6193 0.4451
vn -0.4753 -0.5486 0.6878
vn -0.5044 -0.6994 -0.5063
vn -0.5012 -0.6509 0.5702
vn -0.4747 -0.5914 -0.6518
vn -0.6024 -0.6580 -0.4517
vn -0.6271 -0.6367 0.4487
vn -0.4880 0.6923 -0.5315
vn -0.5975 0.8017 -0.0138
vn -0.5984 0.8010 0.0168
vn -0.4823 0.7721 0.4138
vn -0.6276 -0.1987 0.7527
vn -0.6036 -0.4865 0.6317
vn -0.5856 -0.6694 0.4571
vn -0.7086 -0.5966 0.3767
vn -0.7495 -0.1676 -0.6403
vn -0.6196 0.4322 0.6551
vn -0.7467 -0.1129 0.6554
vn -0.7311 0.1214 -0.6713
vn -0.7840 0.4821 0.3910
vn -0.9882 0.1514 0.0222
vn -0.9872 -0.1571 0.0285
vn -0.6978 -0.6010 0.3897
vn -0.6597 -0.6880 0.3022
vn -0.6623 -0.7486 0.0276
vn -0.6651 -0.6983 -0.2645
vn -0.7114 -0.6038 -0.3596
vn -0.6064 -0.4769 -0.6362
vn -0.6108 -0.4209 -0.6706
vn -0.6465 -0.1657 -0.7447
vn -0.6346 -0.2356 -0.7360
vn -0.6442 -0.1582 -0.7483
vn -0.6118 -0.4247 -0.6673
vn -0.5811 -0.6345 -0.5096
vn -0.5805 -0.7191 -0.3818
vn -0.5734 -0.7763 -0.2619
vn -0.5669 -0.8238 0.0040
vn -0.5749 -0.7746 0.2635
vn -0.5806 -0.7208 0.3786
vn -0.5824 -0.6420 0.4985
vn -0.6075 -0.4284 0.6688
vn -0.6429 -0.1107 0.7579
vn -0.5846 -0.6650 -0.4647
vn -0.5807 -0.6357 -0.5085
vn -0.5803 -0.7201 -0.3803
vn -0.5719 -0.7790 -0.2570
vn -0.5690 -0.8224 0.0039
vn -0.5747 -0.7784 0.2524
vn -0.5807 -0.7271 0.3663
vn -0.5784 -0.6440 0.5006
vn -0.6091 -0.4234 0.6706
vn -0.6447 -0.1346 0.7525
vn -0.9619 -0.1690 -0.2149
vn -0.6297 -0.5770 -0.5201
vn -0.3970 -0.6018 -0.6930
vn -0.3953 -0.4256 -0.8140
vn -0.4009 -0.2184 -0.8897
vn -0.6431 -0.7051 -0.2986
vn -0.5638 -0.6640 0.4911
vn -0.7382 -0.6743 -0.0207
vn -0.5805 -0.4738 0.6623
vn -0.7468 -0.6195 0.2416
vn -0.6029 -0.2153 0.7682
vn -0.9895 0.1415 -0.0291
vn 0.0000 -0.1134 -0.9935
usemtl Van_Body
s off
f 148/1/1 150/2/1 149/3/1 147/4/1
f 150/5/2 154/6/2 153/7/2 149/8/2
f 154/9/3 152/10/3 151/11/3 153/12/3
f 152/10/4 148/13/4 147/14/4 151/11/4
f 147/15/5 149/16/5 153/17/5 151/18/5
f 152/19/6 154/20/6 150/21/6 148/22/6
f 156/23/1 158/24/1 157/25/1 155/26/1
f 158/27/7 162/28/7 161/29/7 157/30/7
f 162/31/3 160/32/3 159/33/3 161/34/3
f 160/32/8 156/35/8 155/36/8 159/33/8
f 155/37/9 157/38/9 161/39/9 159/40/9
f 160/41/10 162/42/10 158/43/10 156/44/10
s 1
f 10/45/11 36/46/12 37/47/13 11/48/14 2/49/15 72/50/16 73/51/17 1/52/18 23/53/19 49/54/20 50/55/21 24/56/22 64/57/23 69/58/24
f 3/59/25 77/60/26 76/61/27 4/62/28 66/63/29 62/64/30
f 1/65/18 9/66/31 26/67/32 33/68/33 34/69/34 35/70/35 23/71/19
f 2/72/15 8/73/36 5/74/37 78/75/38 72/76/16
f 3/77/25 7/78/39 145/79/40 77/80/26
f 78/81/38 5/82/37 6/83/41 80/84/42
f 80/85/42 6/86/41 4/87/28 76/88/27
f 6/89/41 67/90/43 66/91/29 4/92/28
f 8/93/36 12/94/44 14/95/45 15/96/46 16/97/47 13/98/48 68/99/49 67/90/43 6/89/41 5/100/37
f 18/101/50 17/102/51 43/103/52 44/104/53
f 49/105/20 61/106/54 60/107/55 59/108/56 55/109/57 54/110/58 53/111/59 52/112/60 51/113/61 58/114/62 57/115/63 56/116/64 50/117/21
f 11/118/14 17/119/51 18/120/50 19/121/65 12/94/44 8/93/36 2/122/15
f 36/123/12 48/124/66 47/125/67 46/126/68 42/127/69 41/128/70 40/129/71 39/130/72 38/131/73 45/132/74 44/133/53 43/134/52 37/135/13
f 24/136/22 30/137/75 31/138/76 32/139/77 25/140/78 63/141/79 64/142/23
f 31/143/76 30/144/75 56/145/64 57/146/63
f 19/147/65 18/101/50 44/104/53 45/148/74
f 32/149/77 31/143/76 57/146/63 58/150/62
f 12/151/44 19/152/65 45/153/74 38/154/73
f 25/155/78 32/156/77 58/157/62 51/158/61
f 14/159/45 12/151/44 38/154/73 39/160/72
f 27/161/80 25/155/78 51/158/61 52/162/60
f 20/163/81 13/164/48 42/165/69 46/166/68
f 33/167/33 26/168/32 55/169/57 59/170/56
f 15/171/46 14/159/45 39/160/72 40/172/71
f 28/173/82 27/161/80 52/162/60 53/174/59
f 21/175/83 20/176/81 46/177/68 47/178/67
f 34/179/34 33/180/33 59/181/56 60/182/55
f 16/183/47 15/171/46 40/172/71 41/184/70
f 29/185/84 28/173/82 53/174/59 54/186/58
f 22/187/85 21/175/83 47/178/67 48/188/66
f 35/189/35 34/179/34 60/182/55 61/190/54
f 13/164/48 16/183/47 41/184/70 42/165/69
f 26/168/32 29/185/84 54/186/58 55/169/57
f 10/191/11 22/187/85 48/188/66 36/192/12
f 23/193/19 35/189/35 61/190/54 49/194/20
f 17/102/51 11/195/14 37/196/13 43/103/52
f 30/144/75 24/197/22 50/198/21 56/145/64
f 62/199/30 65/200/86 7/201/39 3/202/25
f 65/200/86 63/141/79 25/140/78
f 64/142/23 63/141/79 68/99/49 69/203/24
f 67/90/43 68/99/49 63/141/79 65/200/86
f 69/203/24 68/99/49 13/98/48 20/204/81 21/205/83 22/206/85 10/207/11
f 66/91/29 67/90/43 65/200/86 62/199/30
f 85/208/87 144/209/88 139/210/89 99/211/90 125/212/91 124/213/92 98/214/93 70/215/94 73/51/17 72/50/16 71/216/95 86/217/96 112/218/97 111/219/98
f 74/220/99 137/221/100 141/222/101 75/223/102 76/61/27 77/60/26
f 70/224/94 98/225/93 110/226/103 109/227/104 108/228/105 101/229/106 84/230/107
f 71/231/95 72/76/16 78/75/38 79/232/108 83/233/109
f 74/234/99 77/80/26 145/79/40 82/235/110
f 78/81/38 80/84/42 81/236/111 79/237/108
f 80/85/42 76/88/27 75/238/102 81/239/111
f 81/240/111 75/241/102 141/242/101 142/243/112
f 83/244/109 79/245/108 81/240/111 142/243/112 143/246/113 88/247/114 91/248/115 90/249/116 89/250/117 87/251/118
f 93/252/119 119/253/120 118/254/121 92/255/122
f 124/256/92 125/257/91 131/258/123 132/259/124 133/260/125 126/261/126 127/262/127 128/263/128 129/264/129 130/265/130 134/266/131 135/267/132 136/268/133
f 86/269/96 71/270/95 83/244/109 87/251/118 94/271/134 93/272/119 92/273/122
f 111/274/98 112/275/97 118/276/121 119/277/120 120/278/135 113/279/136 114/280/137 115/281/138 116/282/139 117/283/140 121/284/141 122/285/142 123/286/143
f 99/287/90 139/288/89 138/289/144 100/290/145 107/291/146 106/292/147 105/293/148
f 106/294/147 132/295/124 131/296/123 105/297/148
f 94/298/134 120/299/135 119/253/120 93/252/119
f 107/300/146 133/301/125 132/295/124 106/294/147
f 87/302/118 113/303/136 120/304/135 94/305/134
f 100/306/145 126/307/126 133/308/125 107/309/146
f 89/310/117 114/311/137 113/303/136 87/302/118
f 102/312/149 127/313/127 126/307/126 100/306/145
f 95/314/150 121/315/141 117/316/140 88/317/114
f 108/318/105 134/319/131 130/320/130 101/321/106
f 90/322/116 115/323/138 114/311/137 89/310/117
f 103/324/151 128/325/128 127/313/127 102/312/149
f 96/326/152 122/327/142 121/328/141 95/329/150
f 109/330/104 135/331/132 134/332/131 108/333/105
f 91/334/115 116/335/139 115/323/138 90/322/116
f 104/336/153 129/337/129 128/325/128 103/324/151
f 97/338/154 123/339/143 122/327/142 96/326/152
f 110/340/103 136/341/133 135/331/132 109/330/104
f 88/317/114 117/316/140 116/335/139 91/334/115
f 101/321/106 130/320/130 129/337/129 104/336/153
f 85/342/87 111/343/98 123/339/143 97/338/154
f 98/344/93 124/345/92 136/341/133 110/340/103
f 92/255/122 118/254/121 112/346/97 86/347/96
f 105/297/148 131/296/123 125/348/91 99/349/90
f 137/350/100 74/351/99 82/352/110 140/353/155
f 140/353/155 100/290/145 138/289/144
f 139/288/89 144/354/88 143/246/113 138/289/144
f 142/243/112 140/353/155 138/289/144 143/246/113
f 144/354/88 85/355/87 97/356/154 96/357/152 95/358/150 88/247/114 143/246/113
f 141/242/101 137/350/100 140/353/155 142/243/112
f 82/235/110 145/79/40 146/359/156 84/360/107
f 145/79/40 7/78/39 9/361/31 146/359/156
f 146/359/156 9/361/31 1/362/18 73/363/17
f 84/360/107 146/359/156 73/363/17 70/364/94
f 25/140/78 27/365/80 28/366/82 65/200/86
f 65/200/86 28/366/82 29/367/84 7/201/39
f 100/290/145 140/353/155 103/368/151 102/369/149
f 103/368/151 140/353/155 82/352/110 104/370/153
f 7/201/39 29/367/84 26/67/32 9/66/31
f 104/370/153 82/352/110 84/230/107 101/229/106
